<svg height="1406" width="720" xmlns="http://www.w3.org/2000/svg">
<rect height="1406" fill="#555" width="720"></rect>
<text fill="#7f7" font-family="Courier New" font-size="12" xml:space="preserve">
<tspan x="10" y="26">20 megabytes installed</tspan>
<tspan x="10" y="42"></tspan>
<tspan x="10" y="58">node_modules</tspan>
<tspan x="10" y="74">└─┬ regenerator@0.9.7 </tspan>
<tspan x="10" y="90">  ├─┬ babel-core@6.24.1 </tspan>
<tspan x="10" y="106">  │ ├─┬ babel-code-frame@6.22.0 </tspan>
<tspan x="10" y="122">  │ │ ├─┬ chalk@1.1.3 </tspan>
<tspan x="10" y="138">  │ │ │ ├── ansi-styles@2.2.1 </tspan>
<tspan x="10" y="154">  │ │ │ ├── escape-string-regexp@1.0.5 </tspan>
<tspan x="10" y="170">  │ │ │ ├─┬ has-ansi@2.0.0 </tspan>
<tspan x="10" y="186">  │ │ │ │ └── ansi-regex@2.1.1 </tspan>
<tspan x="10" y="202">  │ │ │ ├── strip-ansi@3.0.1 </tspan>
<tspan x="10" y="218">  │ │ │ └── supports-color@2.0.0 </tspan>
<tspan x="10" y="234">  │ │ ├── esutils@2.0.2 </tspan>
<tspan x="10" y="250">  │ │ └── js-tokens@3.0.1 </tspan>
<tspan x="10" y="266">  │ ├─┬ babel-generator@6.24.1 </tspan>
<tspan x="10" y="282">  │ │ ├─┬ detect-indent@4.0.0 </tspan>
<tspan x="10" y="298">  │ │ │ └─┬ repeating@2.0.1 </tspan>
<tspan x="10" y="314">  │ │ │   └─┬ is-finite@1.0.2 </tspan>
<tspan x="10" y="330">  │ │ │     └── number-is-nan@1.0.1 </tspan>
<tspan x="10" y="346">  │ │ ├── jsesc@1.3.0 </tspan>
<tspan x="10" y="362">  │ │ └── trim-right@1.0.1 </tspan>
<tspan x="10" y="378">  │ ├── babel-helpers@6.24.1 </tspan>
<tspan x="10" y="394">  │ ├── babel-messages@6.23.0 </tspan>
<tspan x="10" y="410">  │ ├─┬ babel-register@6.24.1 </tspan>
<tspan x="10" y="426">  │ │ ├── core-js@2.4.1 </tspan>
<tspan x="10" y="442">  │ │ ├─┬ home-or-tmp@2.0.0 </tspan>
<tspan x="10" y="458">  │ │ │ ├── os-homedir@1.0.2 </tspan>
<tspan x="10" y="474">  │ │ │ └── os-tmpdir@1.0.2 </tspan>
<tspan x="10" y="490">  │ │ └── source-map-support@0.4.14 </tspan>
<tspan x="10" y="506">  │ ├── babel-runtime@6.23.0 </tspan>
<tspan x="10" y="522">  │ ├── babel-template@6.24.1 </tspan>
<tspan x="10" y="538">  │ ├─┬ babel-traverse@6.24.1 </tspan>
<tspan x="10" y="554">  │ │ ├── globals@9.17.0 </tspan>
<tspan x="10" y="570">  │ │ └─┬ invariant@2.2.2 </tspan>
<tspan x="10" y="586">  │ │   └── loose-envify@1.3.1 </tspan>
<tspan x="10" y="602">  │ ├─┬ babel-types@6.24.1 </tspan>
<tspan x="10" y="618">  │ │ └── to-fast-properties@1.0.2 </tspan>
<tspan x="10" y="634">  │ ├── babylon@6.17.0 </tspan>
<tspan x="10" y="650">  │ ├── convert-source-map@1.5.0 </tspan>
<tspan x="10" y="666">  │ ├─┬ debug@2.6.4 </tspan>
<tspan x="10" y="682">  │ │ └── ms@0.7.3 </tspan>
<tspan x="10" y="698">  │ ├── json5@0.5.1 </tspan>
<tspan x="10" y="714">  │ ├── lodash@4.17.4 </tspan>
<tspan x="10" y="730">  │ ├─┬ minimatch@3.0.3 </tspan>
<tspan x="10" y="746">  │ │ └─┬ brace-expansion@1.1.7 </tspan>
<tspan x="10" y="762">  │ │   ├── balanced-match@0.4.2 </tspan>
<tspan x="10" y="778">  │ │   └── concat-map@0.0.1 </tspan>
<tspan x="10" y="794">  │ ├── path-is-absolute@1.0.1 </tspan>
<tspan x="10" y="810">  │ ├── private@0.1.7 </tspan>
<tspan x="10" y="826">  │ ├── slash@1.0.0 </tspan>
<tspan x="10" y="842">  │ └── source-map@0.5.6 </tspan>
<tspan x="10" y="858">  ├─┬ commoner@0.10.8 </tspan>
<tspan x="10" y="874">  │ ├─┬ commander@2.9.0 </tspan>
<tspan x="10" y="890">  │ │ └── graceful-readlink@1.0.1 </tspan>
<tspan x="10" y="906">  │ ├─┬ detective@4.5.0 </tspan>
<tspan x="10" y="922">  │ │ ├── acorn@4.0.11 </tspan>
<tspan x="10" y="938">  │ │ └── defined@1.0.0 </tspan>
<tspan x="10" y="954">  │ ├─┬ glob@5.0.15 </tspan>
<tspan x="10" y="970">  │ │ ├─┬ inflight@1.0.6 </tspan>
<tspan x="10" y="986">  │ │ │ └── wrappy@1.0.2 </tspan>
<tspan x="10" y="1002">  │ │ ├── inherits@2.0.3 </tspan>
<tspan x="10" y="1018">  │ │ └── once@1.4.0 </tspan>
<tspan x="10" y="1034">  │ ├── graceful-fs@4.1.11 </tspan>
<tspan x="10" y="1050">  │ ├── iconv-lite@0.4.15 </tspan>
<tspan x="10" y="1066">  │ ├─┬ mkdirp@0.5.1 </tspan>
<tspan x="10" y="1082">  │ │ └── minimist@0.0.8 </tspan>
<tspan x="10" y="1098">  │ └── q@1.5.0 </tspan>
<tspan x="10" y="1114">  ├─┬ recast@0.11.23 </tspan>
<tspan x="10" y="1130">  │ ├── ast-types@0.9.6 </tspan>
<tspan x="10" y="1146">  │ └── esprima@3.1.3 </tspan>
<tspan x="10" y="1162">  ├─┬ regenerator-preset@0.9.6 </tspan>
<tspan x="10" y="1178">  │ ├── babel-plugin-syntax-async-functions@6.13.0 </tspan>
<tspan x="10" y="1194">  │ ├── babel-plugin-syntax-async-generators@6.13.0 </tspan>
<tspan x="10" y="1210">  │ ├── babel-plugin-transform-es2015-arrow-functions@6.22.0 </tspan>
<tspan x="10" y="1226">  │ ├── babel-plugin-transform-es2015-block-scoping@6.24.1 </tspan>
<tspan x="10" y="1242">  │ ├─┬ babel-plugin-transform-es2015-classes@6.24.1 </tspan>
<tspan x="10" y="1258">  │ │ ├── babel-helper-define-map@6.24.1 </tspan>
<tspan x="10" y="1274">  │ │ ├─┬ babel-helper-function-name@6.24.1 </tspan>
<tspan x="10" y="1290">  │ │ │ └── babel-helper-get-function-arity@6.24.1 </tspan>
<tspan x="10" y="1306">  │ │ ├── babel-helper-optimise-call-expression@6.24.1 </tspan>
<tspan x="10" y="1322">  │ │ └── babel-helper-replace-supers@6.24.1 </tspan>
<tspan x="10" y="1338">  │ ├── babel-plugin-transform-es2015-for-of@6.23.0 </tspan>
<tspan x="10" y="1354">  │ └── regenerator-transform@0.9.11 </tspan>
<tspan x="10" y="1370">  ├── regenerator-runtime@0.10.3 </tspan>
<tspan x="10" y="1386">  └── through@2.3.8</tspan>
</text>
</svg>
